<svg width="260" height="40" viewBox="0 0 260 40" fill="none" xmlns="http://www.w3.org/2000/svg">
<path fill-rule="evenodd" clip-rule="evenodd" d="M25.5557 11.6853C23.9112 10.5865 21.9778 10 20 10V0C23.9556 0 27.8224 1.17298 31.1114 3.37061C34.4004 5.56823 36.9638 8.69181 38.4776 12.3463C39.9913 16.0008 40.3874 20.0222 39.6157 23.9018C38.844 27.7814 36.9392 31.3451 34.1421 34.1421C31.3451 36.9392 27.7814 38.844 23.9018 39.6157C20.0222 40.3874 16.0008 39.9913 12.3463 38.4776C8.6918 36.9638 5.56823 34.4004 3.37061 31.1114C1.17298 27.8224 0 23.9556 0 20H10C10 21.9778 10.5865 23.9112 11.6853 25.5557C12.7841 27.2002 14.3459 28.4819 16.1732 29.2388C18.0004 29.9957 20.0111 30.1937 21.9509 29.8078C23.8907 29.422 25.6725 28.4696 27.0711 27.0711C28.4696 25.6725 29.422 23.8907 29.8078 21.9509C30.1937 20.0111 29.9957 18.0004 29.2388 16.1732C28.4819 14.3459 27.2002 12.7841 25.5557 11.6853Z" fill="url(#paint0_linear_3_639)"/>
<path fill-rule="evenodd" clip-rule="evenodd" d="M9.99999 5.28493e-06C9.99999 1.31322 9.74134 2.61358 9.23879 3.82684C8.73624 5.04009 7.99965 6.14248 7.07106 7.07107C6.14248 7.99966 5.04009 8.73625 3.82683 9.2388C2.61357 9.74134 1.31321 10 4.3711e-07 10L0 20C2.62643 20 5.22715 19.4827 7.65367 18.4776C10.0802 17.4725 12.285 15.9993 14.1421 14.1421C15.9993 12.285 17.4725 10.0802 18.4776 7.65367C19.4827 5.22715 20 2.62643 20 0L9.99999 5.28493e-06Z" fill="url(#paint1_linear_3_639)"/>
<path d="M125.463 12.5635H120.611V27.9758H125.463V12.5635Z" fill="#080C1E"/>
<path d="M121.151 9.67768C121.658 10.1851 122.292 10.4388 123.053 10.4388C123.814 10.4388 124.438 10.1851 124.924 9.67768C125.411 9.14918 125.654 8.51488 125.654 7.77493C125.654 7.01385 125.411 6.37957 124.924 5.87219C124.438 5.36477 123.814 5.11108 123.053 5.11108C122.292 5.11108 121.658 5.36477 121.151 5.87219C120.664 6.37957 120.421 7.01385 120.421 7.77493C120.421 8.51488 120.664 9.14918 121.151 9.67768Z" fill="#080C1E"/>
<path d="M51 27.9758V5.58667H55.9789V23.5995H65.905V27.9758H51Z" fill="#080C1E"/>
<path fill-rule="evenodd" clip-rule="evenodd" d="M74.8713 28.3246C73.2857 28.3246 71.8481 27.9758 70.5584 27.2781C69.2899 26.5593 68.2857 25.5868 67.5457 24.3605C66.8058 23.1343 66.4358 21.7601 66.4358 20.2379C66.4358 18.7157 66.8058 17.3521 67.5457 16.147C68.2857 14.9419 69.2899 13.9905 70.5584 13.2929C71.8269 12.574 73.2646 12.2146 74.8713 12.2146C76.4781 12.2146 77.9157 12.5635 79.1842 13.2611C80.4527 13.9588 81.457 14.9208 82.1969 16.147C82.9369 17.3521 83.3069 18.7157 83.3069 20.2379C83.3069 21.7601 82.9369 23.1343 82.1969 24.3605C81.457 25.5868 80.4527 26.5593 79.1842 27.2781C77.9157 27.9758 76.4781 28.3246 74.8713 28.3246ZM74.8713 23.9166C75.569 23.9166 76.1821 23.7686 76.7107 23.4726C77.2392 23.1555 77.6409 22.7221 77.9157 22.1724C78.2117 21.6016 78.3597 20.9567 78.3597 20.2379C78.3597 19.5191 78.2117 18.8954 77.9157 18.3669C77.6197 17.8172 77.2075 17.3944 76.6789 17.0984C76.1715 16.7812 75.569 16.6227 74.8713 16.6227C74.1948 16.6227 73.5923 16.7812 73.0637 17.0984C72.5352 17.3944 72.1229 17.8172 71.8269 18.3669C71.5309 18.9166 71.383 19.5508 71.383 20.2696C71.383 20.9673 71.5309 21.6016 71.8269 22.1724C72.1229 22.7221 72.5352 23.1555 73.0637 23.4726C73.5923 23.7686 74.1948 23.9166 74.8713 23.9166Z" fill="#080C1E"/>
<path fill-rule="evenodd" clip-rule="evenodd" d="M87.1493 34.0012C88.4389 34.5931 89.9294 34.8891 91.6208 34.8891C93.2698 34.8891 94.7392 34.5614 96.0288 33.906C97.3185 33.2506 98.3332 32.3416 99.0732 31.1788C99.8131 30.016 100.184 28.6418 100.184 27.0561V12.5635H95.4262V13.599C95.0724 13.3012 94.6706 13.0512 94.2212 12.8489C93.3966 12.4472 92.4558 12.2463 91.3988 12.2463C89.9823 12.2463 88.7243 12.5846 87.625 13.2611C86.5255 13.9165 85.6588 14.8256 85.0245 15.9884C84.3902 17.1301 84.0732 18.4197 84.0732 19.8574C84.0732 21.2739 84.3902 22.5635 85.0245 23.7263C85.6588 24.8891 86.5255 25.8088 87.625 26.4853C88.7243 27.1618 89.9823 27.5001 91.3988 27.5001C92.4347 27.5001 93.3755 27.2993 94.2212 26.8976C94.6308 26.703 95.0008 26.4737 95.3311 26.2096V27.183C95.3311 28.2612 94.9823 29.0963 94.2846 29.6883C93.6081 30.2803 92.6673 30.5762 91.4622 30.5762C90.4897 30.5762 89.6546 30.4071 88.9569 30.0688C88.2804 29.7306 87.6672 29.2337 87.1175 28.5783L84.1366 31.5593C84.8765 32.6164 85.8808 33.4304 87.1493 34.0012ZM94.0626 22.7432C93.5763 23.0392 92.995 23.1872 92.3184 23.1872C91.6419 23.1872 91.0499 23.0392 90.5425 22.7432C90.0562 22.4472 89.6757 22.0455 89.4009 21.5381C89.126 21.0096 88.9886 20.4493 88.9886 19.8574C88.9886 19.2231 89.126 18.6523 89.4009 18.1449C89.6757 17.6375 90.0668 17.2358 90.5742 16.9398C91.0816 16.6438 91.663 16.4958 92.3184 16.4958C92.995 16.4958 93.5763 16.6438 94.0626 16.9398C94.57 17.2358 94.9505 17.6375 95.2043 18.1449C95.4791 18.6523 95.6165 19.2231 95.6165 19.8574C95.6165 20.4916 95.4791 21.0624 95.2043 21.5698C94.9505 22.0561 94.57 22.4472 94.0626 22.7432Z" fill="#080C1E"/>
<path fill-rule="evenodd" clip-rule="evenodd" d="M110.395 28.3246C108.809 28.3246 107.371 27.9758 106.082 27.2781C104.813 26.5593 103.809 25.5868 103.069 24.3605C102.329 23.1343 101.959 21.7601 101.959 20.2379C101.959 18.7157 102.329 17.3521 103.069 16.147C103.809 14.9419 104.813 13.9905 106.082 13.2929C107.35 12.574 108.788 12.2146 110.395 12.2146C112.001 12.2146 113.439 12.5635 114.707 13.2611C115.976 13.9588 116.98 14.9208 117.72 16.147C118.46 17.3521 118.83 18.7157 118.83 20.2379C118.83 21.7601 118.46 23.1343 117.72 24.3605C116.98 25.5868 115.976 26.5593 114.707 27.2781C113.439 27.9758 112.001 28.3246 110.395 28.3246ZM110.395 23.9166C111.092 23.9166 111.705 23.7686 112.234 23.4726C112.762 23.1555 113.164 22.7221 113.439 22.1724C113.735 21.6016 113.883 20.9567 113.883 20.2379C113.883 19.5191 113.735 18.8954 113.439 18.3669C113.143 17.8172 112.731 17.3944 112.202 17.0984C111.695 16.7812 111.092 16.6227 110.395 16.6227C109.718 16.6227 109.115 16.7812 108.587 17.0984C108.058 17.3944 107.646 17.8172 107.35 18.3669C107.054 18.9166 106.906 19.5508 106.906 20.2696C106.906 20.9673 107.054 21.6016 107.35 22.1724C107.646 22.7221 108.058 23.1555 108.587 23.4726C109.115 23.7686 109.718 23.9166 110.395 23.9166Z" fill="#080C1E"/>
<path fill-rule="evenodd" clip-rule="evenodd" d="M137.125 28.2929C136.09 28.2929 135.138 28.0921 134.271 27.6904C133.815 27.479 133.403 27.2266 133.035 26.9332V34.4769H128.246V12.5635H133.098V13.6272C133.45 13.3393 133.841 13.0904 134.271 12.8806C135.138 12.4577 136.09 12.2463 137.125 12.2463C138.584 12.2463 139.874 12.5952 140.994 13.2929C142.136 13.9905 143.024 14.9419 143.658 16.147C144.314 17.3521 144.641 18.7263 144.641 20.2696C144.641 21.813 144.314 23.1872 143.658 24.3923C143.024 25.5974 142.136 26.5487 140.994 27.2464C139.874 27.9441 138.584 28.2929 137.125 28.2929ZM136.238 23.9166C136.935 23.9166 137.538 23.758 138.045 23.4409C138.574 23.1238 138.986 22.6903 139.282 22.1407C139.578 21.591 139.726 20.9673 139.726 20.2696C139.726 19.5508 139.578 18.9166 139.282 18.3669C138.986 17.8172 138.574 17.3944 138.045 17.0984C137.538 16.7812 136.946 16.6227 136.269 16.6227C135.593 16.6227 134.99 16.7812 134.462 17.0984C133.954 17.3944 133.553 17.8172 133.257 18.3669C132.961 18.9166 132.813 19.5508 132.813 20.2696C132.813 20.9673 132.95 21.591 133.225 22.1407C133.521 22.6903 133.933 23.1238 134.462 23.4409C134.99 23.758 135.582 23.9166 136.238 23.9166Z" fill="#080C1E"/>
<path d="M149.39 28.0074C150.278 28.24 151.176 28.3562 152.085 28.3562C154.009 28.3562 155.531 27.9123 156.652 27.0243C157.793 26.1364 158.364 24.9419 158.364 23.4408C158.364 22.4683 158.185 21.686 157.825 21.0941C157.466 20.481 157.001 19.9947 156.43 19.6353C155.859 19.2759 155.256 18.9904 154.622 18.779C153.988 18.5676 153.385 18.3879 152.815 18.2399C152.244 18.0919 151.779 17.9228 151.419 17.7325C151.06 17.5422 150.88 17.2885 150.88 16.9714C150.88 16.6754 151.018 16.4534 151.292 16.3054C151.567 16.1363 151.979 16.0518 152.529 16.0518C153.1 16.0518 153.681 16.168 154.273 16.4006C154.886 16.6331 155.436 17.0349 155.922 17.6057L158.681 14.815C157.984 13.927 157.075 13.261 155.954 12.8171C154.855 12.352 153.65 12.1194 152.339 12.1194C151.092 12.1194 150.003 12.3308 149.073 12.7536C148.142 13.1765 147.423 13.7579 146.916 14.4978C146.409 15.2166 146.155 16.0729 146.155 17.0666C146.155 17.9968 146.335 18.7685 146.694 19.3816C147.053 19.9735 147.519 20.4387 148.089 20.7769C148.66 21.1152 149.263 21.3795 149.897 21.5697C150.531 21.76 151.134 21.9397 151.705 22.1089C152.275 22.2569 152.741 22.4366 153.1 22.648C153.481 22.8383 153.671 23.1237 153.671 23.5042C153.671 23.8002 153.512 24.0327 153.195 24.2019C152.899 24.371 152.466 24.4556 151.895 24.4556C151.07 24.4556 150.309 24.3076 149.612 24.0116C148.914 23.6945 148.311 23.2611 147.804 22.7114L145.045 25.5021C145.574 26.0729 146.208 26.5804 146.948 27.0243C147.709 27.4471 148.523 27.7748 149.39 28.0074Z" fill="#080C1E"/>
<path d="M167.212 28.3246C165.796 28.3246 164.538 28.0392 163.439 27.4684C162.36 26.8764 161.515 26.073 160.902 25.0582C160.288 24.0223 159.982 22.8384 159.982 21.5064V12.5635H164.834V21.443C164.834 21.9715 164.918 22.4261 165.088 22.8066C165.278 23.1872 165.553 23.4832 165.912 23.6946C166.272 23.906 166.705 24.0117 167.212 24.0117C167.931 24.0117 168.502 23.7897 168.925 23.3457C169.348 22.8806 169.559 22.2464 169.559 21.443V12.5635H174.411V21.4747C174.411 22.8278 174.105 24.0223 173.491 25.0582C172.878 26.073 172.033 26.8764 170.954 27.4684C169.876 28.0392 168.629 28.3246 167.212 28.3246Z" fill="#080C1E"/>
<path d="M181.675 12.5635H176.823V27.9758H181.675V18.9694C181.675 18.4409 181.781 17.9969 181.992 17.6375C182.225 17.2781 182.532 17.0032 182.912 16.813C183.293 16.6015 183.726 16.4958 184.212 16.4958C184.91 16.4958 185.491 16.7178 185.956 17.1618C186.443 17.5846 186.686 18.1872 186.686 18.9694V27.9758H191.538V18.9694C191.538 18.4409 191.644 17.9969 191.855 17.6375C192.088 17.2781 192.394 17.0032 192.775 16.813C193.155 16.6015 193.589 16.4958 194.075 16.4958C194.773 16.4958 195.354 16.7178 195.819 17.1618C196.305 17.5846 196.548 18.1872 196.548 18.9694V27.9758H201.401V18.4303C201.401 17.1407 201.126 16.0413 200.576 15.1322C200.047 14.2019 199.318 13.4937 198.388 13.0075C197.479 12.5 196.432 12.2463 195.248 12.2463C194.043 12.2463 192.954 12.5106 191.982 13.0392C191.35 13.3759 190.798 13.8105 190.325 14.3429C189.884 13.786 189.348 13.3303 188.715 12.9757C187.87 12.4895 186.908 12.2463 185.83 12.2463C184.688 12.2463 183.663 12.4895 182.754 12.9757C182.358 13.178 181.999 13.4203 181.675 13.7026V12.5635Z" fill="#080C1E"/>
<defs>
<linearGradient id="paint0_linear_3_639" x1="0" y1="0" x2="40" y2="40" gradientUnits="userSpaceOnUse">
<stop/>
<stop offset="1" stop-color="#8B8B8B"/>
</linearGradient>
<linearGradient id="paint1_linear_3_639" x1="0" y1="0" x2="40" y2="40" gradientUnits="userSpaceOnUse">
<stop/>
<stop offset="1" stop-color="#8B8B8B"/>
</linearGradient>
</defs>
</svg>
